<svg width="372" height="46" viewBox="0 0 372 46" fill="none" xmlns="http://www.w3.org/2000/svg">
<g filter="url(#filter0_d_206_28)">
<path d="M88.2087 22.2185C95.0422 19.4568 101.267 16.7446 107.621 14.3882C121.679 9.17076 135.953 4.80545 151.22 7.62681C155.653 8.44503 160.13 9.7702 164.213 11.6662C175.039 16.6739 185.433 14.4989 195.845 10.5712C209.792 5.30129 223.965 3.17058 238.482 7.89887C251.977 12.2968 265.016 10.1427 278.152 6.14192C285.295 3.967 292.649 2.37055 300.016 1.13464C310.49 -0.616699 317.74 5.70095 325.262 11.6821C327.972 13.8366 332.301 15.3794 335.654 15.014C346.103 13.8934 356.437 11.7421 367.613 9.84846C356.63 21.2628 344.136 27.3739 328.787 24.675C324.309 23.8817 319.767 20.5955 316.348 17.303C311.105 12.2611 305.392 10.7602 298.648 12.2785C289.339 14.3865 280.006 16.4206 270.828 19.0142C259.441 22.2273 248.366 21.2104 237.251 17.9327C224.662 14.2148 212.324 15.3925 200.242 20.2008C187.505 25.2704 174.978 27.3238 161.681 21.0875C149.49 15.3756 136.653 15.131 123.904 20.3434C113.226 24.7088 102.43 28.7482 91.728 33.0541C87.8731 34.5995 83.8802 36.2483 80.3606 33.1199C77.0694 30.1832 75.927 26.3199 77.1536 21.6491C79.2596 13.7019 77.6752 12.3609 69.6147 13.2941C55.3077 14.9678 43.0183 21.7286 30.5921 28.2335C25.3118 30.9964 20.1671 34.0295 14.7656 36.5233C12.8798 37.4002 10.1863 37.6196 8.25506 36.9828C6.61774 36.4426 4.59705 34.3029 4.45648 32.7238C4.31351 31.1732 5.95171 28.6219 7.47919 27.9019C21.3515 21.3028 35.2725 14.8085 49.373 8.74623C54.9541 6.33936 60.9456 4.3552 66.9398 3.53599C82.1575 1.46433 87.7325 6.49095 88.1778 22.2447L88.2087 22.2185Z" fill="black"/>
</g>
<defs>
<filter id="filter0_d_206_28" x="0.447754" y="0.837891" width="371.166" height="44.511" filterUnits="userSpaceOnUse" color-interpolation-filters="sRGB">
<feFlood flood-opacity="0" result="BackgroundImageFix"/>
<feColorMatrix in="SourceAlpha" type="matrix" values="0 0 0 0 0 0 0 0 0 0 0 0 0 0 0 0 0 0 127 0" result="hardAlpha"/>
<feOffset dy="4"/>
<feGaussianBlur stdDeviation="2"/>
<feComposite in2="hardAlpha" operator="out"/>
<feColorMatrix type="matrix" values="0 0 0 0 0 0 0 0 0 0 0 0 0 0 0 0 0 0 0.25 0"/>
<feBlend mode="normal" in2="BackgroundImageFix" result="effect1_dropShadow_206_28"/>
<feBlend mode="normal" in="SourceGraphic" in2="effect1_dropShadow_206_28" result="shape"/>
</filter>
</defs>
</svg>
