<svg width="342" height="27" viewBox="0 0 342 27" fill="none" xmlns="http://www.w3.org/2000/svg">
<path d="M44.4812 0.153339C49.841 0.235683 53.9911 2.7486 56.2417 7.68067C57.9436 11.4476 60.0703 12.2006 63.7331 11.0789C73.1391 8.20015 82.5809 5.44272 92.0667 2.9114C97.9426 1.34106 103.041 2.67411 106.964 8.01913C107.908 9.29736 110.34 10.2474 111.921 10.0143C120.048 8.80211 128.13 7.14027 136.23 5.65832C145.333 3.99801 154.419 2.14303 163.574 0.813614C169.218 -0.0107465 174.356 2.57619 177.527 7.02699C182.146 13.4863 188.269 13.5547 194.516 12.4983C206.299 10.5216 217.933 7.67187 229.695 5.55983C235.713 4.48969 241.881 3.80094 247.978 3.8231C250.768 3.82617 253.922 5.44516 256.244 7.25279C261.165 11.0634 266.856 11.1506 272.295 10.8652C287.373 10.069 302.464 9.0501 317.436 7.13015C325.654 6.07245 332.068 9.68925 338.761 12.9801C340.087 13.6405 341.677 16.8793 341.196 17.7146C340.056 19.6876 337.932 21.542 335.817 22.2795C334.024 22.9172 331.464 22.4362 329.645 21.5825C320.203 17.1289 310.614 20.1904 301.086 20.7675C289.366 21.4666 277.672 22.6739 265.956 23.0604C262.425 23.1769 258.06 22.3347 255.458 20.1528C248.336 14.1843 240.703 15.56 232.923 16.9866C220.489 19.2671 208.1 21.7588 195.689 24.1448C185.461 26.1103 176.729 23.7254 169.576 15.4011C168.043 13.6109 164.461 12.4281 162.134 12.855C150.925 14.8512 139.81 17.4638 128.661 19.8956C121.157 21.5175 113.717 24.4692 106.02 20.9097C105.068 20.4654 103.889 20.216 103.214 19.4903C95.9727 11.6672 88.2375 15.227 80.4036 18.2743C74.9848 20.3786 69.5374 22.4811 63.9428 23.9193C56.9161 25.7336 51.8361 22.6585 47.2275 14.829C45.6094 12.0653 44.1121 10.8881 41.007 11.343C31.9111 12.6461 23.8671 16.5599 16.5081 22.0045C9.84039 26.9542 4.91896 27.7175 1.12891 23.2744C0.26855 22.2694 0.286585 18.8438 1.14967 18.1207C11.3464 9.47872 30.2039 0.0737099 44.509 0.169868L44.4812 0.153339Z" fill="black"/>
</svg>
