<svg width="1168" height="29" viewBox="0 0 1168 29" fill="none" xmlns="http://www.w3.org/2000/svg">
<path d="M147.124 1.43723C165.5 1.44508 180.198 3.90244 188.852 8.80748C195.404 12.554 202.834 13.2781 215.166 12.1044C246.835 9.09232 278.65 6.20115 310.66 3.53567C330.487 1.88223 348.206 3.14551 362.669 8.44059C366.15 9.70678 374.66 10.6238 380.034 10.3685C407.641 9.04221 435.007 7.26649 462.47 5.67057C493.335 3.88219 524.103 1.8992 555.21 0.441263C574.387 -0.462334 592.483 2.05537 604.199 6.4659C621.258 12.8666 642.245 12.8499 663.445 11.7056C703.429 9.56327 742.734 6.54922 782.621 4.27172C803.033 3.11692 824.031 2.34176 844.92 2.27912C854.479 2.24338 865.592 3.8199 873.894 5.59679C891.481 9.3422 910.991 9.35033 929.569 8.98904C981.065 7.98236 1032.57 6.75264 1083.49 4.62274C1111.44 3.44979 1134.1 6.98049 1157.66 10.1811C1162.33 10.8236 1168.39 14.0431 1166.9 14.8858C1163.38 16.8764 1156.46 18.7619 1149.35 19.5295C1143.33 20.1927 1134.47 19.7469 1128.08 18.9177C1094.88 14.5917 1062.62 17.7892 1030.09 18.4994C990.077 19.3622 950.251 20.7332 910.19 21.283C898.118 21.4487 883.004 20.6665 873.672 18.5189C848.132 12.6443 822.247 14.1274 795.869 15.6635C753.714 18.1189 711.752 20.7851 669.694 23.3459C635.032 25.4553 604.665 23.1899 578.565 14.9578C572.973 13.1874 560.474 12.0535 552.585 12.5131C514.572 14.667 476.994 17.4364 439.271 20.0255C413.876 21.7532 388.955 24.811 361.905 21.3554C358.561 20.924 354.475 20.6908 352.021 19.9738C325.717 12.2447 299.902 15.9152 273.65 19.0742C255.491 21.2556 237.233 23.4357 218.344 24.953C194.621 26.8667 176.63 23.8595 159.343 16.0874C153.271 13.3439 147.916 12.1865 137.367 12.6849C106.457 14.1157 79.652 18.1448 55.4865 23.6965C33.594 28.7433 16.8816 29.5757 3.04724 25.1814C-0.0925048 24.1875 -0.687008 20.7587 2.13101 20.023C35.4048 11.2317 98.201 1.55616 147.222 1.45339L147.124 1.43723Z" fill="black"/>
</svg>
